<svg xmlns="http://www.w3.org/2000/svg" viewBox="0 0 180 180" role="img" aria-label="Dinosaurio Pequeñas Finanzas">
  <ellipse cx="88" cy="160" rx="54" ry="10" fill="#062F23" opacity=".18"/>
  <path d="M48 104c-12-31 1-69 33-79 34-11 68 7 72 37 3 21-9 35-29 42 13 10 22 26 21 45H73c-16-11-24-25-25-45z" fill="#FF6C50" stroke="#C94436" stroke-width="6" stroke-linejoin="round"/>
  <path d="M65 104c7-27 22-41 45-42 16 0 29 7 39 20-17-4-31 0-43 12-10 10-16 25-17 45H68z" fill="#FF9A70"/>
  <path d="M64 140c-22-2-40 4-55 20 24 2 45-3 62-14z" fill="#E95140" stroke="#C94436" stroke-width="5"/>
  <ellipse cx="111" cy="52" rx="18" ry="20" fill="#FFF8EC"/><ellipse cx="116" cy="54" rx="8" ry="11" fill="#173A33"/><circle cx="119" cy="49" r="3" fill="#FFFFFF"/>
  <path d="M134 74c17 0 28 6 35 16-15 3-28 1-40-7z" fill="#FFD47A" stroke="#C94436" stroke-width="4" stroke-linejoin="round"/>
  <path d="M87 119c-4 13-3 24 4 34M123 116c7 10 9 21 6 34" fill="none" stroke="#C94436" stroke-width="7" stroke-linecap="round"/>
  <g fill="#D94C3E"><circle cx="65" cy="55" r="7"/><circle cx="56" cy="79" r="6"/><circle cx="58" cy="106" r="7"/></g>
</svg>